<?xml version="1.0" encoding="utf-8"?>
<!-- Generator: Adobe Illustrator 18.1.1, SVG Export Plug-In . SVG Version: 6.00 Build 0)  -->
<svg version="1.1" id="Ebene_1" xmlns="http://www.w3.org/2000/svg" xmlns:xlink="http://www.w3.org/1999/xlink" x="0px" y="0px"
	 viewBox="40.8 93.2 796 425.9" enable-background="new 40.8 93.2 796 425.9" xml:space="preserve">
<path fill="#00254D" d="M395.3,336.4h0.3l56.4,72.9h56.7l-72.9-88.5l66.9-79.8h-54.3l-52.8,69.3h-0.3v-69h-43.8v168.4h43.8
	L395.3,336.4L395.3,336.4z M616.8,409.6l72-168.4h-47.7l-40.8,102l-40.5-102.3H512l70.8,168.4h33.9V409.6z M281.2,131.4l-3.9,2.4
	v24.6l43.5,18.9l13.2,3.3c0,0,7.2-9.3,6-10.8C303.4,121.5,281.2,131.4,281.2,131.4z M241.9,509.8v-64.5
	C217.9,470.2,229.9,494.2,241.9,509.8z M280.3,271.8v29.1c13.5-5.7,27.3-12,36.9-21c7.2-6.9,12-15.6,11.7-26.7
	c-0.3-20.4-16.5-31.8-35.7-40.5c-6.6-3-13.5-5.7-20.1-8.1c-2.4-0.9-4.8-1.8-7.2-2.7V93.2h-10.8V198c-5.1-2.1-9.9-4.5-13.5-7.2
	c-1.5-1.5-3.3-2.7-4.5-3.9c-1.8-1.8-2.7-3.9-2.7-5.7c0-3.3,1.8-6.3,5.7-9.3v-30c-5.7,3-11.4,6-15.9,9.6c-9.9,7.5-17.1,16.8-16.8,30
	c0.3,20.4,16.8,31.8,35.7,40.5c3.9,1.8,8.1,3.3,12.3,5.1v120.4c-5.4-2.1-10.5-4.5-14.7-6.9c-3.6-2.1-6.6-4.2-8.4-6.3
	c-1.5-1.8-2.7-3.6-2.7-5.7c0-4.2,3.9-8.1,10.2-12v-30.3c-4.5,2.1-8.7,4.2-12.9,6.9c-13.8,8.4-24.9,19.5-24.6,35.7
	c0.3,21.9,18.9,33.3,39.6,42c4.5,1.8,9,3.6,13.5,5.4v142.9h10.5v-139c5.1,2.1,10.2,4.2,15,6.3c9,4.5,15.9,9.3,15.9,14.4
	c0,5.1-6,9.9-14.1,14.4v30c11.7-5.4,23.1-11.4,30.9-19.5c6.3-6.6,10.2-14.7,10.2-25.2c-0.3-27.6-29.7-38.7-55.8-48.6
	c-0.6-0.3-1.5-0.6-2.1-0.9V231c6,2.1,12,4.5,17.7,7.2c1.8,0.9,3.6,1.8,5.4,2.7c3.3,1.8,6.9,4.5,10.5,7.8c1.5,1.8,2.1,3.3,2.1,5.1
	C301.6,259.2,289.6,267,280.3,271.8z M776.2,409.3h-67.8v-83.4v-2.4v-83.7h66.3c27,0,58.2,13.2,58.2,44.7c0,20.7-7.2,35.4-27.3,39.9
	c21.9,3.9,31.2,18.9,31.2,40.2C837.1,398.2,806.8,409.3,776.2,409.3z M751.5,306.3h4.5c14.1,0,33.6,1.8,33.6-17.4
	c0-18.3-19.8-17.1-32.7-17.1h-5.4L751.5,306.3L751.5,306.3z M792.7,360.4c0-19.5-21.6-17.4-36-17.4h-4.5v34.5h5.7
	C770.8,377.5,792.7,378.1,792.7,360.4z M189.1,189.9l-64.8-21.3l18.3,65.7l64.8,21.3L189.1,189.9z M115.3,344.2l18.3,65.7l64.8,21.3
	l-18.6-65.4L115.3,344.2z M60,147.6L60,147.6v0.3V147.6L60,147.6z M64.8,327.7l50.4,16.5l-18.6-65.4L61.2,267
	C61.8,289.5,63,309.6,64.8,327.7z M142.9,234.3L78,213l18.3,65.7l64.8,21.3L142.9,234.3z M59.7,151.5c0,19.5,0,38.1,0.3,55.5l18,6
	l-18.3-65.1V151.5z M118.6,147.6H60l64.5,21L118.6,147.6z M148.3,462.4l-14.7-52.8l-57.3-18.9C88.5,431.8,110.5,453.7,148.3,462.4z
	 M50.7,144.3v-4.2h137.8V132H40.8v4.5c0,263.2,6.6,346.4,147.7,346.4v-8.1C57,473.5,50.7,393.4,50.7,144.3z"/>
</svg>
