<?xml version="1.0" standalone="no"?>
<!DOCTYPE svg PUBLIC "-//W3C//DTD SVG 20010904//EN"
 "http://www.w3.org/TR/2001/REC-SVG-20010904/DTD/svg10.dtd">
<svg version="1.0" xmlns="http://www.w3.org/2000/svg"
 width="177.000000pt" height="38.000000pt" viewBox="0 0 177.000000 38.000000"
 preserveAspectRatio="xMidYMid meet">

<g transform="translate(0.000000,38.000000) scale(0.100000,-0.100000)"
fill="#000000" stroke="none">
<path d="M1460 355 c0 -8 7 -15 15 -15 8 0 15 7 15 15 0 8 -7 15 -15 15 -8 0
-15 -7 -15 -15z"/>
<path d="M1250 331 c0 -19 -6 -34 -15 -37 -8 -4 -15 -10 -15 -15 0 -5 7 -9 15
-9 12 0 15 -16 15 -80 0 -86 9 -100 64 -100 36 0 34 28 -1 32 -27 3 -28 5 -31
76 l-3 72 31 0 c16 0 30 5 30 10 0 6 -13 10 -29 10 -26 0 -30 4 -33 32 -4 42
-28 50 -28 9z"/>
<path d="M121 291 c-7 -5 -22 -6 -32 -4 -18 5 -19 -2 -19 -136 0 -119 2 -141
15 -141 11 0 15 11 15 40 0 38 2 40 29 40 75 0 110 48 96 136 -9 61 -60 93
-104 65z m60 -38 c8 -9 14 -35 14 -58 0 -53 -18 -75 -61 -75 l-34 0 0 69 c0
46 4 71 13 74 25 11 55 6 68 -10z"/>
<path d="M290 287 c-23 -11 -20 -12 32 -15 47 -2 58 -6 64 -24 8 -25 -9 -38
-53 -38 -36 0 -73 -29 -73 -58 0 -10 7 -27 15 -39 14 -20 24 -22 90 -20 75 2
83 5 66 23 -5 5 -11 42 -13 83 -3 57 -8 76 -23 87 -23 17 -70 17 -105 1z m98
-129 c-3 -31 -6 -33 -44 -36 -46 -3 -62 14 -44 49 8 14 21 19 51 19 39 0 40
-1 37 -32z"/>
<path d="M531 291 c-7 -5 -22 -6 -32 -4 -18 5 -19 -2 -19 -97 0 -77 3 -101 13
-98 8 3 13 32 15 86 3 77 4 82 27 88 53 13 60 5 65 -85 3 -55 9 -86 18 -89 9
-3 12 19 12 87 0 82 -2 91 -22 105 -25 18 -56 20 -77 7z"/>
<path d="M722 290 c-30 -13 -45 -55 -39 -114 5 -59 32 -86 84 -86 54 0 83 36
83 105 0 46 -4 60 -25 80 -25 26 -62 31 -103 15z m88 -39 c5 -11 10 -36 10
-56 0 -55 -15 -75 -56 -75 -28 0 -36 5 -44 26 -6 14 -10 36 -10 49 0 13 4 35
10 49 8 21 16 26 44 26 25 0 38 -6 46 -19z"/>
<path d="M963 285 c-18 -8 -33 -10 -33 -5 0 6 -7 10 -15 10 -13 0 -15 -15 -13
-95 4 -113 22 -132 26 -27 3 73 3 73 37 88 19 8 35 21 35 29 0 8 -1 15 -2 15
-2 -1 -18 -7 -35 -15z"/>
<path d="M1058 293 c-35 -9 -17 -22 34 -25 42 -2 54 -7 56 -22 5 -23 -14 -36
-51 -36 -49 0 -67 -16 -67 -60 0 -21 6 -42 13 -47 21 -14 157 -11 157 4 0 7
-4 13 -10 13 -6 0 -10 30 -10 70 0 57 -4 74 -20 90 -19 19 -60 24 -102 13z
m90 -135 c-3 -31 -6 -33 -45 -36 -41 -3 -43 -2 -43 26 0 37 6 42 52 42 38 0
39 -1 36 -32z"/>
<path d="M1584 290 c-49 -19 -56 -153 -11 -185 33 -23 84 -19 112 10 21 20 25
34 25 80 0 46 -4 60 -25 80 -25 26 -62 31 -101 15z m84 -32 c7 -7 12 -35 12
-63 0 -60 -12 -75 -57 -75 -27 0 -35 5 -44 28 -13 33 -5 102 13 113 19 13 62
11 76 -3z"/>
<path d="M1462 193 c2 -66 7 -98 16 -101 9 -3 12 21 12 97 0 84 -3 101 -15
101 -13 0 -15 -15 -13 -97z"/>
<path d="M1380 114 c0 -31 23 -28 28 4 2 15 -2 22 -12 22 -11 0 -16 -9 -16
-26z"/>
</g>
</svg>
