<svg xmlns="http://www.w3.org/2000/svg" width="271.228" height="48" viewBox="0 0 271.228 48"><g transform="translate(-154.414 -118)"><g transform="translate(154.414 118)"><path d="M203.05,142a24.32,24.32,0,1,1-24.318-24,24.16,24.16,0,0,1,24.318,24" transform="translate(-154.414 -118)" fill="#57bfe3"/></g><g transform="translate(164.835 132.167)"><path d="M284.51,280.611c-.576-1.9-2.012-5.747-3.256-8.964-.95-2.445-1.8-4.528-2.037-5.121a13.627,13.627,0,0,1-5.453-.573,10.215,10.215,0,0,0-7.029.538c-1.408.646-3.773,2.847-3.127,5.775.548,2.466,2.837,3.238,5.191,4.283,2.686,1.195,4.947,1.747,4.859,3.993-.07,1.949-1.834,2.823-3.462,2.823-1.824,0-4.192-1.492-5.432-3.266l-1.8,3.735,1,.367.58-1.314a10.291,10.291,0,0,0,5.778,1.848c2.648-.1,5.359-1.233,6.225-3.354a5.05,5.05,0,0,0-1.1-5.666c-.734-.6-1.027-.964-4.625-2.218-2.361-.821-4.311-2.005-4.311-3.528,0-1.062.566-2.348,2.638-2.746a8.087,8.087,0,0,1,6.155,1.139c.524.363,1.418.929,2.421,3.906,1.01,2.784,4.2,11.553,4.346,12.094,0,0,1.328-.045,1.782-.045s1.932.038,1.932.038l-.5-1.307s2.931-7.794,3.347-8.978,2.267-6.484,2.267-6.484h1.558l.049-1.058h-3.487s-1.757,5.789-2.138,6.983-2.376,7.1-2.376,7.1" transform="translate(-262.966 -265.577)" fill="#fff"/></g><g transform="translate(232.845 133.389)"><path d="M972.847,278.3a1.448,1.448,0,1,0,1.439,1.45,1.446,1.446,0,0,0-1.439-1.45" transform="translate(-971.408 -278.298)" fill="#fff"/></g><g transform="translate(238.002 133.389)"><path d="M1026.559,278.3a1.448,1.448,0,1,0,1.439,1.45,1.446,1.446,0,0,0-1.439-1.45" transform="translate(-1025.12 -278.298)" fill="#fff"/></g><g transform="translate(303.892 138.989)"><path d="M1718.37,337.219a8.026,8.026,0,0,0-2.914-.587c-2.383,0-3.982,1.436-3.982,3.577s1.569,2.983,2.959,3.717c1.1.587,2.148,1.139,2.148,2.271a1.8,1.8,0,0,1-1.988,1.771,2.777,2.777,0,0,1-2.557-2.721l-.556.119.217,2.718.122.042a7.764,7.764,0,0,0,2.8.6c2.051,0,4.241-.968,4.241-3.682,0-2.054-1.481-2.8-2.91-3.521-1.209-.611-2.351-1.188-2.351-2.515a1.676,1.676,0,0,1,1.81-1.621c1.432,0,2.184.807,2.358,2.522l.552-.1a16.72,16.72,0,0,1,.052-2.589" transform="translate(-1711.474 -336.632)" fill="#fff"/></g><g transform="translate(313.052 138.989)"><path d="M1810.326,344.984a7.52,7.52,0,0,1-.908-3.7c0-2.313,1.037-3.689,2.777-3.689a2.058,2.058,0,0,1,1.852,1.244c.308.486.573.9,1.146.9a1.269,1.269,0,0,0,1.289-1.272c0-1.523-1.764-1.841-3.246-1.841a6.417,6.417,0,0,0-6.348,6.47c0,3.469,2.012,5.628,5.254,5.628,2.187,0,3.427-1.153,4.7-3.011l-.36-.4a3.918,3.918,0,0,1-3.071,1.523,3.475,3.475,0,0,1-3.088-1.859" transform="translate(-1806.888 -336.631)" fill="#fff"/></g><g transform="translate(414.316 138.989)"><path d="M2873.054,338.566v-1.118h-2.131a2.871,2.871,0,0,1-1.181-.161,6.474,6.474,0,0,0-3.063-.657c-2.358,0-4.8,1.5-4.8,4.01a3.917,3.917,0,0,0,2.572,3.57l-2.292,1.593c.018,1.638.787,2.421,2.855,2.631-2.275.971-3.288,1.485-3.288,3.085,0,1.838,2.411,2.655,4.8,2.655A8.243,8.243,0,0,0,2870.8,353a4.639,4.639,0,0,0,2.256-4.07c0-1.68-1.216-2.679-3.249-2.679-.555,0-1.121.031-1.67.063s-1.121.063-1.684.063a2.382,2.382,0,0,1-1.733-.416,1.321,1.321,0,0,1-.279-1.038l.671-.559a5.908,5.908,0,0,0,1.669.238,5.354,5.354,0,0,0,3.259-1.087,3.619,3.619,0,0,0,1.464-2.879,5.017,5.017,0,0,0-.447-2.075Zm-5.156,10.162c.888,0,3.235,0,3.235,1.921,0,1.806-2.407,2.77-4.15,2.77-2.211,0-3.333-.8-3.333-2.362,0-2.03,2.662-2.33,4.248-2.33m-1.065-4.88c-1.652,0-2.267-2.124-2.267-3.462,0-.947.2-3.151,2.089-3.151,1.711,0,2.166,2.414,2.166,3.693,0,1.09-.259,2.921-1.988,2.921" transform="translate(-2861.728 -336.631)" fill="#fff"/></g><g transform="translate(359.078 132.442)"><path d="M2303.551,268.486c-.4.028-.811.052-1.215.052-.573,0-1.111-.028-1.628-.056-.433-.021-.838-.042-1.237-.045v.6h.35c.891,0,1.708.112,1.708.926a4.135,4.135,0,0,1-.335,1.464L2296.84,282.9l-4.67-12.21-.234-.852c0-.4.434-.8,1.4-.8h.5v-.6c-.321,0-.8.021-1.342.042-.765.028-1.635.059-2.341.059-.65,0-1.316-.025-1.959-.049-.615-.025-1.251-.049-1.873-.052v.6a2.071,2.071,0,0,1,2.386,1.509l6.655,16.527h.828l6.805-17.1a1.4,1.4,0,0,1,1.418-.943h.175v-.6c-.335,0-.681.028-1.045.049" transform="translate(-2286.328 -268.437)" fill="#fff"/></g><g transform="translate(217.652 131.914)"><path d="M823.852,263.487a37.141,37.141,0,0,0-4.14-.545c-3.965,0-6.449,2.131-6.449,5.422,0,3.4,2.55,4.454,4.94,5.548,2.03.929,4.119,1.883,4.119,4.108,0,1.838-1.726,3.12-3.951,3.12-2.512,0-4.189-1.729-4.643-4.37l-.58.129.416,3.916a11.452,11.452,0,0,0,4.6,1.324,8.5,8.5,0,0,0,4.922-1.4,4.838,4.838,0,0,0,2.152-4.1c0-3.431-2.767-4.541-5.135-5.593-2.019-.894-4.084-1.816-4.084-3.878,0-2.183,1.534-3.437,3.934-3.437a3.84,3.84,0,0,1,3.619,3.521l.573-.1a27.545,27.545,0,0,1-.29-3.658" transform="translate(-813.148 -262.942)" fill="#fff"/></g><g transform="translate(270.826 138.992)"><path d="M1373.34,346.621a3.527,3.527,0,0,1-3.067-1.656,6.286,6.286,0,0,1-.919-3.563h6.875l.255-.237a4.89,4.89,0,0,0-1.142-3.424,3.74,3.74,0,0,0-2.763-1.073c-3.465,0-5.537,3.2-5.537,6.285a6.763,6.763,0,0,0,1.247,3.989,4.375,4.375,0,0,0,3.605,1.82,5.678,5.678,0,0,0,4.776-3.113l-.307-.37a3.9,3.9,0,0,1-3.022,1.341m-3.986-5.963c.367-2.065,1.4-3.235,2.791-3.235a2.068,2.068,0,0,1,1.859,2.2c0,1-.262,1.031-1.656,1.031h-2.994" transform="translate(-1367.041 -336.668)" fill="#fff"/></g><g transform="translate(337.349 138.992)"><path d="M2066.277,346.621a3.527,3.527,0,0,1-3.067-1.656,6.258,6.258,0,0,1-.922-3.563h6.878l.256-.237a4.891,4.891,0,0,0-1.143-3.424,3.746,3.746,0,0,0-2.763-1.073c-3.465,0-5.533,3.2-5.533,6.285a6.738,6.738,0,0,0,1.247,3.989,4.361,4.361,0,0,0,3.6,1.82,5.675,5.675,0,0,0,4.776-3.113l-.308-.37a3.907,3.907,0,0,1-3.022,1.341m-3.99-5.963c.37-2.065,1.4-3.235,2.795-3.235a2.067,2.067,0,0,1,1.858,2.2c0,1-.262,1.031-1.656,1.031h-3" transform="translate(-2059.982 -336.668)" fill="#fff"/></g><g transform="translate(374.592 138.992)"><path d="M2454.235,346.621a3.53,3.53,0,0,1-3.067-1.656,6.257,6.257,0,0,1-.919-3.563h6.875l.258-.237a4.91,4.91,0,0,0-1.146-3.424,3.74,3.74,0,0,0-2.763-1.073c-3.466,0-5.537,3.2-5.537,6.285a6.744,6.744,0,0,0,1.25,3.989,4.366,4.366,0,0,0,3.6,1.82,5.671,5.671,0,0,0,4.779-3.113l-.308-.37a3.912,3.912,0,0,1-3.022,1.341m-3.986-5.963c.367-2.065,1.4-3.235,2.792-3.235a2.068,2.068,0,0,1,1.859,2.2c0,1-.262,1.031-1.656,1.031h-2.994" transform="translate(-2447.936 -336.668)" fill="#fff"/></g><g transform="translate(323.857 131.792)"><path d="M1922.336,280.47c.94,0,1.894.049,2.816.1v-.6c-.94,0-1.6,0-1.6-.7v-7.633a5.165,5.165,0,0,1,2.417-1.044c1.317,0,2.016.768,2.016,2.232v6.4c0,.748-.831.748-1.5.748v.6c1.006-.049,1.876-.1,2.865-.1.94,0,1.841.049,2.792.1v-.6c-.814,0-1.551,0-1.551-.8v-7.088c0-2.135-.954-3.218-2.99-3.218a6.232,6.232,0,0,0-3.441,1.516l-.6.423v-8.964l-.21-.171a24.933,24.933,0,0,1-3.9,1.478v.493l.786.314c.608.234.716.5.716,1.1v14.044c0,.845-.719.873-1.5.877v.6c.912-.045,1.862-.1,2.893-.1" transform="translate(-1919.443 -261.668)" fill="#fff"/></g><g transform="translate(348.28 138.989)"><path d="M2175.037,348.293c.618-.024,1.184-.056,1.827-.056.716,0,1.447.031,2.152.056l1.348.042v-.6c-1.523,0-2.26,0-2.26-.671v-6.732c0-1.251.765-1.82,1.478-1.82a1.106,1.106,0,0,1,.838.468,1.148,1.148,0,0,0,.94.5,1.311,1.311,0,0,0,1.342-1.425,1.378,1.378,0,0,0-1.544-1.429,4.017,4.017,0,0,0-3.053,2.19v-2.072l-.2-.112a18.373,18.373,0,0,1-4.007,1.485v.479l.744.14c.678.108.859.388.859,1.286v6.962c0,.688-.73.748-1.652.748v.6c.4-.007.8-.028,1.191-.042" transform="translate(-2173.846 -336.632)" fill="#fff"/></g><g transform="translate(295.144 136.169)"><path d="M1624.482,318.832a1.293,1.293,0,0,0,1.429,1.464,2.558,2.558,0,0,0,1.478-.433l.248.325c-1.065,1.376-2.026,1.995-3.273,1.995a2.264,2.264,0,0,1-2.487-2.557v-8.192h-1.523v-.562a14.559,14.559,0,0,0,3.927-3.605l.2.1v2.718h3.025v1.348h-3.025v7.4" transform="translate(-1620.353 -307.265)" fill="#fff"/></g><g transform="translate(395.081 131.792)"><path d="M2662.15,263.953c.6.238.712.5.712,1.1V279.1c0,.845-.719.873-1.5.873v.6c.895-.045,1.841-.1,2.865-.1.961,0,1.918.049,2.84.1v-.6c-.79,0-1.6,0-1.6-.873V261.839l-.21-.171a24.527,24.527,0,0,1-3.9,1.478v.5l.786.311" transform="translate(-2661.364 -261.668)" fill="#fff"/></g><g transform="translate(385.488 138.989)"><path d="M2562.625,348.293c.625-.024,1.188-.056,1.827-.056.719,0,1.45.031,2.155.056l1.349.042v-.6c-1.523,0-2.264,0-2.264-.671v-6.732c0-1.251.769-1.82,1.478-1.82a1.1,1.1,0,0,1,.839.468,1.155,1.155,0,0,0,.943.5,1.312,1.312,0,0,0,1.341-1.425,1.379,1.379,0,0,0-1.544-1.429,4.035,4.035,0,0,0-3.057,2.19v-2.072l-.2-.112a18.5,18.5,0,0,1-4.007,1.485v.479l.744.14c.674.108.856.388.856,1.286v6.962c0,.688-.727.748-1.649.748v.6c.4-.007.8-.028,1.188-.042" transform="translate(-2561.437 -336.632)" fill="#fff"/></g><g transform="translate(230.47 139.128)"><path d="M951.281,350.042c1.5,0,2.906-1.093,4.017-2.009v1.845l.189.15a16.425,16.425,0,0,1,3.413-.842l.454-.08v-.461h-.681c-.646,0-.765-.353-.765-1.006v-7.186a16.633,16.633,0,0,1,.119-2.26l-.175-.1a15.466,15.466,0,0,1-4.433.727v.479l1.216.391c.556.171.664.314.664.9v6.456a4.019,4.019,0,0,1-2.47,1.118c-1.3,0-1.96-.734-1.96-2.18v-5.523c0-.632.045-1.258.094-1.862l.028-.395-.178-.108a17,17,0,0,1-4.15.73v.472l1.006.293c.507.143.594.342.594.744v6.8c0,1.932,1.016,2.914,3.018,2.914" transform="translate(-946.663 -338.087)" fill="#fff"/></g><g transform="translate(281.499 139.128)"><path d="M1482.832,350.042c1.5,0,2.906-1.093,4.017-2.009v1.845l.189.15a16.374,16.374,0,0,1,3.413-.842l.454-.08v-.461h-.681c-.646,0-.769-.353-.769-1.006v-7.186a16.571,16.571,0,0,1,.122-2.26l-.175-.1a15.467,15.467,0,0,1-4.433.727v.479l1.216.391c.555.1.664.314.664.9v6.456a4.019,4.019,0,0,1-2.47,1.118c-1.3,0-1.96-.734-1.96-2.18v-5.523c0-.632.045-1.258.094-1.862l.028-.395-.178-.108a16.992,16.992,0,0,1-4.15.73v.472l1.006.293c.506.143.594.342.594.744v6.8c0,1.932,1.017,2.914,3.018,2.914" transform="translate(-1478.213 -338.087)" fill="#fff"/></g><g transform="translate(402.159 138.975)"><path d="M2737.722,345.269c0-1.645,1.855-2.232,3.211-2.659l.611-.2v3.19a2.924,2.924,0,0,1-2.222,1.411c-1.034,0-1.6-.618-1.6-1.747m7.909,1.453-.685.293c-.79,0-.853-.894-.853-1.977v-5.226c0-2.173-1.055-3.326-3.2-3.326a2.486,2.486,0,0,0-1.453.349c-.919.552-1.827,1.031-2.627,1.453l-.067.035a2.333,2.333,0,0,0-1.328,2.079c0,.318.147.507.395.507.388,0,1.646-.346,1.688-.95.1-1.485.535-1.894,2-1.894a1.9,1.9,0,0,1,2.047,2.155v1.5l-3.141,1.121c-1.7.639-3.312,1.244-3.312,3.2a2.465,2.465,0,0,0,2.637,2.557l.144-.007-.088.007a5.545,5.545,0,0,0,3.843-1.89c.108.866.489,1.89,1.8,1.89a2.975,2.975,0,0,0,2.435-1.537l-.234-.335" transform="translate(-2735.091 -336.486)" fill="#fff"/></g><g transform="translate(244.147 131.792)"><path d="M1097.438,278.283a3.726,3.726,0,0,1-2.32,1.09c-1.925-.1-3.308-2.166-3.308-4.985,0-1.069.22-4.559,3.032-4.559a3.033,3.033,0,0,1,2.6,1.7Zm2.606,1.209v-17.67l-.231-.154a26.6,26.6,0,0,1-4.077,1.757v.318l1.7.611v4.936a4.915,4.915,0,0,0-2.166-.426,5.938,5.938,0,0,0-4.234,1.921,7.034,7.034,0,0,0-1.907,4.884c0,2.917,1.977,5.293,4.416,5.293,1.813,0,2.62-.611,3.916-1.7v1.59l.136.1.629-.182c.395-.119.81-.262,1.313-.419a19.824,19.824,0,0,1,1.977-.5v-.482l-1.474.126" transform="translate(-1089.13 -261.668)" fill="#fff"/></g><g transform="translate(257.394 131.792)"><path d="M1235.432,278.283a3.717,3.717,0,0,1-2.316,1.09c-1.925-.1-3.312-2.166-3.312-4.985,0-1.069.22-4.559,3.032-4.559a3.032,3.032,0,0,1,2.6,1.7Zm2.606,1.209v-17.67l-.23-.154a26.456,26.456,0,0,1-4.077,1.757v.318l1.7.611v4.936a4.911,4.911,0,0,0-2.166-.426,5.938,5.938,0,0,0-4.234,1.921,7.022,7.022,0,0,0-1.911,4.884c0,2.917,1.984,5.293,4.416,5.293,1.817,0,2.624-.611,3.92-1.7v1.59l.14.1.625-.182c.4-.119.807-.262,1.317-.419a19.35,19.35,0,0,1,1.974-.5v-.482l-1.474.126" transform="translate(-1227.121 -261.668)" fill="#fff"/></g></g></svg>