<?xml version="1.0" encoding="utf-8"?>
<!-- Generator: Adobe Illustrator 22.1.0, SVG Export Plug-In . SVG Version: 6.00 Build 0)  -->
<svg version="1.1" id="Ebene_1" xmlns="http://www.w3.org/2000/svg" xmlns:xlink="http://www.w3.org/1999/xlink" x="0px" y="0px"
	 viewBox="0 0 259.8 54" style="enable-background:new 0 0 259.8 54;" xml:space="preserve">
<style type="text/css">
	.st0{fill:#D2D4EC;}
	.st1{fill:#7882BF;}
	.st2{fill:#164194;}
</style>
<path class="st0" d="M28.9,52.6v-5.1c10.7-0.7,19.2-9.5,19.2-20.4c0-11.3-9.2-20.5-20.5-20.5S7.1,15.8,7.1,27.1
	c0,10.9,8.5,19.8,19.2,20.4v5.1C12.8,51.9,2,40.8,2,27.1C2,12.9,13.5,1.5,27.6,1.5s25.6,11.5,25.6,25.6
	C53.2,40.8,42.4,51.9,28.9,52.6"/>
<path class="st1" d="M28.9,47.5v-5.1C36.8,41.7,43,35.1,43,27.1c0-8.5-6.9-15.4-15.4-15.4s-15.4,6.9-15.4,15.4
	c0,8.1,6.2,14.6,14.1,15.3v5.1C15.6,46.8,7.1,37.9,7.1,27.1c0-11.3,9.2-20.5,20.5-20.5s20.5,9.2,20.5,20.5
	C48.1,37.9,39.6,46.8,28.9,47.5"/>
<path class="st2" d="M35.3,33.5h-2.6V20.7h2.6V33.5z M22.5,33.5h-2.6V20.7h2.6V33.5z M27.6,11.7c-8.5,0-15.4,6.9-15.4,15.4
	c0,8.1,6.2,14.6,14.1,15.3V15.5h2.6v26.8C36.8,41.7,43,35.1,43,27.1C43,18.6,36.1,11.7,27.6,11.7"/>
<path class="st2" d="M72.2,23c-0.6-0.9-1.5-1.3-2.7-1.3h-2.8V33h2.8c1.3,0,2.3-0.4,2.9-1.3c0.3-0.4,0.4-0.8,0.5-1.3
	c0.1-0.5,0.1-1.4,0.1-2.9c0-1.5,0-2.5-0.1-3C72.7,23.9,72.5,23.4,72.2,23L72.2,23z M74.9,32.9c-1.2,1.9-3,2.8-5.3,2.8h-5.8V18.9h6
	c2.3,0,4.1,1,5.2,2.9c0.4,0.7,0.7,1.4,0.8,2c0.1,0.6,0.1,1.8,0.1,3.5c0,1.5,0,2.5-0.1,2.9C75.7,31.3,75.4,32.2,74.9,32.9"/>
<path class="st2" d="M82.6,26.1c-1.4,0-2.1,0.8-2.2,2.3h4.4C84.7,26.9,84,26.1,82.6,26.1L82.6,26.1z M80.4,30.8
	c0.1,1.6,0.9,2.4,2.6,2.4c0.9,0,1.8-0.4,2.5-1.2l2.1,1.8c-1.2,1.4-2.7,2.2-4.6,2.2c-1.5,0-2.7-0.4-3.7-1.2c-1.2-1-1.8-2.7-1.8-4.9
	c0-2.2,0.5-3.8,1.6-4.9c0.9-0.9,2-1.4,3.4-1.4c1.4,0,2.6,0.5,3.5,1.4c1,1,1.5,2.2,1.5,3.8v2.2H80.4"/>
<path class="st2" d="M96.7,34.8c-0.8,0.7-1.7,1.1-2.8,1.1c-1.1,0-2-0.4-2.8-1.1c-0.9-0.8-1.3-1.9-1.3-3.2v-8h2.8v7.2
	c0,0.7,0.2,1.3,0.6,1.7c0.4,0.4,0.9,0.6,1.5,0.6c0.6,0,1.1-0.2,1.5-0.6c0.4-0.4,0.6-1,0.6-1.7v-7.2h2.8v12.2h-2.8V34.8"/>
<path class="st2" d="M105.5,35.8c-0.9,0-1.6-0.3-2.2-0.8c-0.6-0.6-0.9-1.3-0.9-2.3v-6.8h-1.2v-2.3h1.2V20h2.8v3.6h1.7v2.3h-1.7v6.6
	c0,0.4,0.2,0.6,0.6,0.6h1.1v2.7H105.5"/>
<path class="st2" d="M113.9,35.9c-2,0-3.8-0.8-5.5-2.3l2-1.9c1.1,1.1,2.3,1.6,3.7,1.6c1.4,0,2.1-0.4,2.1-1.3c0-0.5-0.4-0.8-1.2-0.9
	l-2.1-0.2c-1.1-0.1-1.9-0.4-2.5-1c-0.7-0.6-1-1.5-1-2.5c0-1.2,0.4-2.2,1.3-2.9c0.8-0.6,1.9-0.9,3.3-0.9c1.8,0,3.5,0.6,4.9,1.8
	l-1.7,2c-1.1-0.8-2.2-1.2-3.2-1.2c-1.2,0-1.8,0.4-1.8,1.2c0,0.5,0.4,0.8,1.3,0.9l1.9,0.1c1.2,0.1,2.1,0.5,2.7,1.2
	c0.6,0.6,0.9,1.5,0.9,2.5c0,1.2-0.5,2.1-1.5,2.8C116.5,35.6,115.3,35.9,113.9,35.9"/>
<path class="st2" d="M125.9,35.9c-1.6,0-2.8-0.5-3.8-1.5c-1.1-1.1-1.7-2.7-1.7-4.8c0-2.1,0.6-3.7,1.7-4.8c1-1,2.3-1.5,3.8-1.5
	c1.7,0,3.2,0.8,4.5,2.3l-2.1,1.8c-0.7-0.9-1.5-1.3-2.4-1.3c-1.9,0-2.8,1.1-2.8,3.4c0,2.3,0.9,3.4,2.8,3.4c0.8,0,1.6-0.4,2.4-1.3
	l2.1,1.8C129.1,35.1,127.6,35.9,125.9,35.9"/>
<path class="st2" d="M134.7,24.5c0.8-0.7,1.7-1.1,2.9-1.1c1.1,0,2,0.4,2.8,1.1c0.9,0.8,1.3,1.9,1.3,3.2v8h-2.8v-7.2
	c0-0.7-0.2-1.3-0.6-1.7c-0.4-0.4-0.9-0.6-1.5-0.6c-0.6,0-1.1,0.2-1.5,0.6c-0.4,0.4-0.6,1-0.6,1.7v7.2h-2.8V18.9h2.8V24.5"/>
<path class="st2" d="M148.6,26.1c-1.4,0-2.1,0.8-2.2,2.3h4.4C150.7,26.9,149.9,26.1,148.6,26.1L148.6,26.1z M146.3,30.8
	c0.1,1.6,0.9,2.4,2.6,2.4c0.9,0,1.8-0.4,2.5-1.2l2.1,1.8c-1.2,1.4-2.8,2.2-4.6,2.2c-1.5,0-2.7-0.4-3.7-1.2c-1.2-1-1.8-2.7-1.8-4.9
	c0-2.2,0.5-3.8,1.6-4.9c0.9-0.9,2-1.4,3.4-1.4c1.4,0,2.6,0.5,3.5,1.4c1,1,1.5,2.2,1.5,3.8v2.2H146.3"/>
<polyline class="st2" points="164.4,21.7 164.4,26.1 171.2,26.1 171.2,28.7 164.4,28.7 164.4,35.8 161.4,35.8 161.4,18.9 
	172.4,18.9 172.4,21.7 164.4,21.7 "/>
<path class="st2" d="M180.3,34.8c-0.8,0.7-1.7,1.1-2.8,1.1c-1.1,0-2-0.4-2.8-1.1c-0.9-0.8-1.3-1.9-1.3-3.2v-8h2.8v7.2
	c0,0.7,0.2,1.3,0.6,1.7c0.4,0.4,0.9,0.6,1.5,0.6c0.6,0,1.1-0.2,1.5-0.6c0.4-0.4,0.6-1,0.6-1.7v-7.2h2.8v12.2h-2.8V34.8"/>
<path class="st2" d="M188.7,24.5c0.8-0.7,1.7-1.1,2.9-1.1c1.1,0,2,0.4,2.8,1.1c0.9,0.8,1.3,1.9,1.3,3.2v8h-2.8v-7.2
	c0-0.7-0.2-1.3-0.6-1.7c-0.4-0.4-0.9-0.6-1.5-0.6c-0.6,0-1.1,0.2-1.5,0.6c-0.4,0.4-0.6,1-0.6,1.7v7.2h-2.8V23.6h2.8V24.5"/>
<polyline class="st2" points="201,28.7 205.2,23.6 208.6,23.6 204.4,28.4 209.1,35.8 205.6,35.8 202.5,30.5 201,32.3 201,35.8 
	198.1,35.8 198.1,18.9 201,18.9 201,28.7 "/>
<path class="st2" d="M213.9,35.8c-0.9,0-1.6-0.3-2.2-0.8c-0.6-0.6-0.9-1.3-0.9-2.3v-6.8h-1.2v-2.3h1.2V20h2.8v3.6h1.7v2.3h-1.7v6.6
	c0,0.4,0.2,0.6,0.6,0.6h1.1v2.7H213.9"/>
<path class="st2" d="M224.4,34.8c-0.8,0.7-1.7,1.1-2.8,1.1c-1.1,0-2-0.4-2.8-1.1c-0.9-0.8-1.3-1.9-1.3-3.2v-8h2.8v7.2
	c0,0.7,0.2,1.3,0.6,1.7c0.4,0.4,0.9,0.6,1.5,0.6c0.6,0,1.1-0.2,1.5-0.6c0.4-0.4,0.6-1,0.6-1.7v-7.2h2.8v12.2h-2.8V34.8"/>
<path class="st2" d="M232.7,24.5c0.8-0.7,1.7-1.1,2.9-1.1c0.9,0,1.8,0.4,2.8,1.1l-2,2.4c-0.6-0.4-1.1-0.7-1.6-0.7
	c-0.6,0-1,0.2-1.4,0.5c-0.4,0.4-0.6,0.9-0.6,1.7v7.3h-2.8V23.6h2.8V24.5"/>
<path class="st2" d="M242.2,24.5c0.8-0.7,1.7-1.1,2.9-1.1c1.2,0,2.3,0.5,3.3,1.4c0.9-1,2.2-1.4,3.7-1.4c1.1,0,2,0.4,2.8,1.1
	c0.9,0.8,1.3,1.9,1.3,3.2v8h-2.8v-7.2c0-0.7-0.2-1.3-0.6-1.7c-0.4-0.4-0.9-0.6-1.5-0.6c-0.6,0-1.1,0.2-1.5,0.6
	c-0.4,0.4-0.6,1-0.6,1.7v7.2h-2.8v-7.2c0-0.7-0.2-1.3-0.6-1.7c-0.4-0.4-0.9-0.6-1.5-0.6c-0.6,0-1.1,0.2-1.5,0.6
	c-0.4,0.4-0.6,1-0.6,1.7v7.2h-2.8V23.6h2.8V24.5"/>
</svg>
