<svg xmlns="http://www.w3.org/2000/svg" xmlns:xlink="http://www.w3.org/1999/xlink" width="244" height="48" viewBox="0 0 244 48"><defs><linearGradient id="a" x1="0.5" x2="0.5" y2="1" gradientUnits="objectBoundingBox"><stop offset="0" stop-color="#ffe600"/><stop offset="0.575" stop-color="#ffdc00"/><stop offset="1" stop-color="#ffd300"/></linearGradient></defs><g transform="translate(-305 -93)"><rect width="244" height="48" transform="translate(305 93)" fill="none"/><g transform="translate(249.84 63.79)"><g transform="translate(111.079 34.792)"><path d="M683.682,226.284h1.866a4.246,4.246,0,0,0,2.9-.693,3.756,3.756,0,0,0,1.311-3.041,4.1,4.1,0,0,0-1.109-2.958,4.024,4.024,0,0,0-3.128-.971H683.68v7.663Zm2.057-6.233a2.251,2.251,0,0,1,2.552,2.469,2.578,2.578,0,0,1-.567,1.749,2.244,2.244,0,0,1-1.815.587h-.769v-4.8h.6v0Zm9.117,6.233h1.419v-5.666h-1.419v.62a2.439,2.439,0,0,0-1.783-.769,2.767,2.767,0,0,0-2.667,2.988,2.82,2.82,0,0,0,2.7,2.977,2.365,2.365,0,0,0,1.751-.746v.6Zm-1.5-4.514a1.549,1.549,0,0,1,1.558,1.666,1.55,1.55,0,1,1-3.086.011,1.547,1.547,0,0,1,1.528-1.677Zm6.063,2.306c.395.193.629.383.629.629s-.278.461-.629.461a1.774,1.774,0,0,1-1.184-.663l-.876.961a2.4,2.4,0,0,0,1.985.969,1.832,1.832,0,0,0,2.04-1.772c0-.842-.491-1.345-1.441-1.813l-.523-.268c-.31-.149-.514-.257-.514-.47s.225-.342.514-.342a1.457,1.457,0,0,1,.982.523l.875-.886a2.3,2.3,0,0,0-1.868-.941,1.709,1.709,0,0,0-1.836,1.634c0,.714.459,1.269,1.365,1.728l.482.249Zm9.391-3.607a2.965,2.965,0,0,0-2.935,2.988,2.972,2.972,0,1,0,5.944-.011,2.977,2.977,0,0,0-3.009-2.977Zm.021,1.343a1.641,1.641,0,0,1,0,3.279,1.515,1.515,0,0,1-1.528-1.645,1.533,1.533,0,0,1,1.528-1.634Zm3.394.011h.512v4.461h1.418v-4.461h.9v-1.207h-.9c.009-.854-.106-1.141.449-1.141a1.858,1.858,0,0,1,.512.094v-1.088a2.715,2.715,0,0,0-1-.2c-1.494,0-1.365,1.067-1.375,2.336h-.512v1.207Zm3.522,0h.512v4.461h1.42v-4.461h.9v-1.207h-.9c.009-.854-.108-1.141.448-1.141a1.843,1.843,0,0,1,.512.094v-1.088a2.7,2.7,0,0,0-1-.2c-1.494,0-1.365,1.067-1.377,2.336h-.512v1.207Zm4.025,4.461h1.419v-5.666h-1.419v5.666Zm.7-8a.884.884,0,0,0-.907.863.944.944,0,0,0,.907.982.907.907,0,0,0,.907-.907.92.92,0,0,0-.907-.939Zm2.081,3.541h2.164l-2.561,4.461h4.6v-1.205h-2.412l2.55-4.461h-4.342v1.205Zm5.219,4.461H729.2v-5.666h-1.418v5.666Zm.7-8a.884.884,0,0,0-.907.863.945.945,0,0,0,.907.982.907.907,0,0,0,.907-.907.919.919,0,0,0-.907-.939Zm6.116,6.339a1.845,1.845,0,0,1-1.411.555,1.519,1.519,0,0,1-1.59-1.315h4.567c0-.128.011-.193.011-.319a2.978,2.978,0,1,0-5.955-.1,3.091,3.091,0,0,0,5.572,1.741l-1.194-.565Zm-2.937-1.877a1.55,1.55,0,0,1,1.526-1.069,1.534,1.534,0,0,1,1.558,1.069Zm5.509,3.541h1.418v-7.853h-1.418v7.853Zm2.775,0h1.418v-7.853h-1.418v7.853Zm6.818-1.664a1.841,1.841,0,0,1-1.409.555,1.516,1.516,0,0,1-1.59-1.315h4.567c0-.128.011-.193.011-.319a2.979,2.979,0,1,0-5.957-.1,3.091,3.091,0,0,0,5.572,1.741l-1.194-.565Zm-2.935-1.877a1.647,1.647,0,0,1,3.084,0Zm9,2.07a2.608,2.608,0,0,0,2.465,1.664,2.166,2.166,0,0,0,2.348-2.178c0-1.4-1.141-2-2.571-3.256-.225-.191-.449-.383-.449-.682a.577.577,0,0,1,.65-.535,1.5,1.5,0,0,1,1.154.79l1.088-.961a2.856,2.856,0,0,0-2.219-1.226,2.01,2.01,0,0,0-2.1,1.93c0,1.088.939,1.813,2.529,3.149a1.194,1.194,0,0,1,.491.854.812.812,0,0,1-.886.716c-.512,0-.918-.342-1.269-1l-1.23.738Zm6.221-4.195h-.725v1.216h.725v4.452h1.42v-4.452h.842v-1.216h-.842v-2.091h-1.42v2.091Zm7.226,5.666h1.418v-5.666h-1.418v.62a2.437,2.437,0,0,0-1.785-.769,2.768,2.768,0,0,0-2.667,2.988,2.82,2.82,0,0,0,2.7,2.977,2.36,2.36,0,0,0,1.751-.746v.6Zm-1.494-4.514a1.549,1.549,0,0,1,1.558,1.666,1.549,1.549,0,1,1-3.084.011,1.543,1.543,0,0,1,1.526-1.677Zm8.431,4.514h1.42v-7.853h-1.42v2.807a2.433,2.433,0,0,0-1.783-.769,2.768,2.768,0,0,0-2.669,2.988,2.82,2.82,0,0,0,2.7,2.977,2.36,2.36,0,0,0,1.751-.746v.6Zm-1.494-4.514a1.69,1.69,0,1,1-1.528,1.677,1.55,1.55,0,0,1,1.528-1.677Zm4.728-1.152h-.727v1.216h.727v4.452h1.418v-4.452h.842v-1.216h-.842v-2.091h-1.418v2.091Zm4.554,0h-1.419v7.736H781v-2.667a2.383,2.383,0,0,0,1.751.746,2.827,2.827,0,0,0,2.71-2.977,2.781,2.781,0,0,0-2.678-2.988,2.443,2.443,0,0,0-1.785.769v-.62Zm1.5,1.152a1.688,1.688,0,0,1,0,3.362,1.571,1.571,0,0,1-1.558-1.7,1.543,1.543,0,0,1,1.558-1.664Zm6.478-1.3a2.982,2.982,0,1,0,3.009,2.977,2.965,2.965,0,0,0-3.009-2.977Zm.023,1.343a1.642,1.642,0,0,1,0,3.279,1.514,1.514,0,0,1-1.528-1.645,1.534,1.534,0,0,1,1.528-1.634Zm5.143-1.194H792.91v5.666h1.419V223.99c0-.31,0-.663.011-.971.03-.833.351-1.3.757-1.3a.972.972,0,0,1,.415.117l.438-1.216a1.351,1.351,0,0,0-.618-.149,1.324,1.324,0,0,0-1.2.865v-.714Zm3.118,0h-.725v1.216h.725v4.452h1.418v-4.452h.842v-1.216h-.842v-2.091h-1.418v2.091Zm7.222,5.666h1.42v-5.666h-1.42v.62a2.432,2.432,0,0,0-1.783-.769,2.77,2.77,0,0,0-2.669,2.988,2.82,2.82,0,0,0,2.7,2.977,2.359,2.359,0,0,0,1.751-.746v.6Zm-1.492-4.514a1.69,1.69,0,1,1-1.528,1.677,1.55,1.55,0,0,1,1.528-1.677Zm4.312,4.514h1.416v-7.853H807.3v7.853Z" transform="translate(-620.89 -187.341)" fill="#fff"/><path d="M539.311,69.028v-.653c0-6.522-4.93-9.387-8.252-9.387a8.8,8.8,0,0,0,0,17.6,9.5,9.5,0,0,0,7.4-4.07l-2.892-1.69a5.586,5.586,0,0,1-4.6,2.586,4.879,4.879,0,0,1-4.869-4.384h13.219ZM535.3,66.065H526.09a4.582,4.582,0,0,1,4.508-3.9c2.17,0,3.976,1.347,4.7,3.9ZM516.21,76.137h3.419V54.47H516.21v7h-.064a5.95,5.95,0,0,0-5.065-2.484,8.321,8.321,0,0,0-8.467,7.738,5.723,5.723,0,0,1,3.628.187c.391-2.083,1.617-4.452,5.105-4.542,2.693-.07,5,2.416,5,5.417a5.3,5.3,0,0,1-5,5.419,3.493,3.493,0,0,1-1.418-.342,5.774,5.774,0,0,1-1.477,3.354,9.013,9.013,0,0,0,2.467.37,6.413,6.413,0,0,0,5.228-2.486h.064v2.034Zm-22.423,0h3.441V66c0-4.168-2.852-7.12-6.22-7.12a5.578,5.578,0,0,0-4.9,2.571h-.066V59.328H482.6V76.139h3.443V66.728c0-2.744,1.721-4.24,3.936-4.24,2.283,0,3.808,1.25,3.808,4.308v9.342Zm-26.378-7.109h13.213v-.653c0-6.522-4.931-9.387-8.25-9.387a8.8,8.8,0,0,0,0,17.6,9.514,9.514,0,0,0,7.4-4.07l-2.9-1.69a5.583,5.583,0,0,1-4.6,2.586,4.869,4.869,0,0,1-4.863-4.382Zm0-2.963a4.574,4.574,0,0,1,4.5-3.9,4.84,4.84,0,0,1,4.7,3.9ZM458.4,76.137h3.421V66.063c0-4.142-2.829-7.075-6.184-7.075a5.54,5.54,0,0,0-4.864,2.554h-.068V54.47H447.29V76.137h3.419V66.786c0-2.724,1.707-4.208,3.912-4.208,2.268,0,3.781,1.243,3.781,4.278v9.281Zm-24.687-8.352a5.2,5.2,0,0,1,5.162-5.417,4.7,4.7,0,0,1,4.142,2.518l2.99-1.862a8.133,8.133,0,0,0-7.132-4.038,8.8,8.8,0,0,0,0,17.6,8.425,8.425,0,0,0,7.132-4.036l-2.99-1.862a4.71,4.71,0,0,1-4.142,2.518,5.2,5.2,0,0,1-5.162-5.417Zm-8.484,8.352h3.441V66c0-4.168-2.846-7.12-6.223-7.12a5.577,5.577,0,0,0-4.9,2.571h-.068V59.328h-3.441V76.139h3.441V66.728c0-2.744,1.724-4.24,3.936-4.24,2.285,0,3.81,1.25,3.81,4.308v9.342Zm-26.164-7.109h13.217v-.653c0-6.522-4.93-9.387-8.254-9.387a8.8,8.8,0,0,0,0,17.6,9.511,9.511,0,0,0,7.4-4.07l-2.9-1.69a5.585,5.585,0,0,1-4.6,2.586,4.871,4.871,0,0,1-4.867-4.382Zm0-2.963a4.576,4.576,0,0,1,4.506-3.9,4.836,4.836,0,0,1,4.7,3.9ZM393.481,69.1V59.439h-3.42V68.79a3.862,3.862,0,1,1-7.693,0V59.439h-3.417V69.1a7.268,7.268,0,1,0,14.53,0Zm-19.837,7.039h3.42V66.479a7.295,7.295,0,0,0-12.917-4.839,6.97,6.97,0,0,0-1.807-1.585l-.023-.013a6.8,6.8,0,0,0-.635-.338l-.147-.066c-.18-.079-.361-.153-.546-.217-.07-.025-.138-.047-.21-.07-.17-.055-.344-.1-.517-.144-.079-.019-.157-.04-.236-.055-.178-.038-.357-.064-.538-.087-.076-.009-.149-.025-.225-.032a7.428,7.428,0,0,0-.769-.042,7.177,7.177,0,0,0-7.264,7.489v9.659h3.419V66.788a3.862,3.862,0,1,1,7.693,0v9.351h3.607V66.788a3.862,3.862,0,1,1,7.693,0v9.349Z" transform="translate(-351.23 -54.47)" fill="#fff"/><g transform="translate(148.538 13.344)"><path d="M1142.058,133.876a4.378,4.378,0,1,0-4.378-4.378,4.379,4.379,0,0,0,4.378,4.378Z" transform="translate(-1137.68 -125.12)" fill="url(#a)"/></g></g><g transform="translate(55.16 30.21)"><circle cx="22.497" cy="22.497" r="22.497" transform="translate(0 0)" fill="url(#a)"/><g transform="translate(1.373 7.323)"><path d="M99.606,88.1l-.145-1.69H99.4l-.181,1.728v.693l-.535-.844V83.859l-.136-1.6h-.093L98.293,83.5l-.457-.363L96.71,73.862a.525.525,0,0,0,.37-.5.485.485,0,0,0-.068-.242l.366-.47-.072-.085-.568.31-.077-.032a.258.258,0,0,0,.149-.234.262.262,0,1,0-.372.234l-.079.032-.567-.31-.07.085.365.47a.511.511,0,0,0,.3.742l-1.128,9.272-.457.363-.162-1.235H94.55l-.136,1.6v4.127l-.535.844v-.693L93.7,86.409h-.064l-.147,1.69v3.811h-7.7V90.436l-.7-.684v-5.3l-.17-.278v-4.8l-.249-.465v-.7l.108-.123-.094-.23V75.581a3.116,3.116,0,0,0,.491-1.673,3.5,3.5,0,0,0-3.307-3.349c-.238-.142-.295-.572-.31-.842a.37.37,0,1,0-.162,0c-.011.27-.068.7-.306.842a3.5,3.5,0,0,0-3.305,3.349,3.129,3.129,0,0,0,.487,1.673v2.276l-.093.23.11.123v.7l-.247.465v4.8l-.172.278v5.3l-.648.633-.648-.633v-5.3l-.172-.278v-4.8l-.247-.465v-.7l.11-.123-.093-.23V75.581a3.145,3.145,0,0,0,.487-1.673,3.5,3.5,0,0,0-3.305-3.349c-.24-.142-.295-.572-.31-.842a.37.37,0,1,0-.162,0c-.015.27-.07.7-.308.842h0a3.505,3.505,0,0,0-3.305,3.349,3.13,3.13,0,0,0,.489,1.673v2.276l-.093.23.11.123v.7l-.249.465v4.8l-.17.278v5.3l-.7.684v1.475H62.43a22.506,22.506,0,0,0,42.247,0H99.606Zm-5.118,2.533h-.536v-.9l.268-.465.27.465v.9Zm.708-6.284h-.342v-.563l.342-.27Zm1.1-11.032a.246.246,0,1,1,.493,0,.246.246,0,1,1-.493,0Zm1.942,11.032H97.9v-.833l.344.27Zm.9,6.284h-.538v-.9l.268-.465.27.465Z" transform="translate(-62.43 -68.98)" fill="#005a9f"/></g></g></g></g></svg>